<svg width="212" height="47" viewBox="0 0 212 47" fill="none" xmlns="http://www.w3.org/2000/svg">
<path d="M188.553 17.1142C191.893 17.1142 194.598 19.8192 194.598 23.1591H201.691C201.691 15.9272 195.812 10.0479 188.58 10.0479C184.964 10.0479 181.679 11.5108 179.306 13.8846L184.302 18.8807C185.378 17.8042 186.896 17.1142 188.553 17.1142Z" fill="#4DA3FF"/>
<path d="M175.442 23.1566C175.442 30.3885 181.322 36.2679 188.554 36.2679V29.174C185.214 29.174 182.509 26.4689 182.509 23.129C182.509 21.4728 183.171 19.9547 184.275 18.8506L179.279 13.8545C176.905 16.2559 175.442 19.5407 175.442 23.1566Z" fill="#4DA3FF"/>
<path d="M211.713 23.1565C211.713 14.5444 206.993 7.03648 199.981 3.03409C196.614 1.1295 192.694 0.0253906 188.554 0.0253906V7.11929C190.735 7.11929 192.805 7.56094 194.709 8.33381C198.298 9.82436 201.251 12.5846 202.963 16.0626C204.039 18.2156 204.646 20.617 204.646 23.1841C204.646 26.9381 203.349 30.416 201.168 33.1487L202.714 37.3167L198.546 35.7709C195.813 37.9515 192.336 39.2489 188.582 39.2489C186.042 39.2489 183.613 38.6416 181.46 37.5651C177.982 35.8537 175.249 32.9002 173.731 29.3119C172.958 27.4625 172.517 25.4199 172.517 23.2669V23.1565H165.423V23.2945C165.45 27.4073 166.555 31.2441 168.432 34.584C172.406 41.5675 179.942 46.3152 188.554 46.3152C193.357 46.3152 197.828 44.8522 201.527 42.3404L211.409 46.0115L207.738 36.1298C210.25 32.431 211.713 27.9594 211.713 23.1565Z" fill="#0B1F3B"/>
<path d="M23.0483 24.9529L7.72877 0H0V44.9096H7.39753V13.6081L19.3771 33.1233H26.6642L38.699 13.5529V44.9096H46.0966V0H38.3678L23.0483 24.9529Z" fill="#0B1F3B"/>
<path d="M126.613 32.654L101.633 0H94.1523V44.9096H101.55V12.0348L126.696 44.9096H134.011V0H126.613V32.654Z" fill="#0B1F3B"/>
<path d="M137.82 0V7.0939H153.885V44.9096H161.282V7.0939H177.292V0H137.82Z" fill="#0B1F3B"/>
<path d="M81.675 0H90.3423V25.3945C90.3423 36.7668 81.8959 44.882 70.1095 44.882C58.3231 44.882 49.9043 36.7944 49.9043 25.4221V0.0276034H58.5716V25.7257C58.5716 32.1572 63.3744 36.684 70.1371 36.684C76.8998 36.684 81.7027 32.1296 81.7027 25.7257L81.675 0Z" fill="#0B1F3B"/>
</svg>
