<svg width="113" height="25" viewBox="0 0 113 25" fill="none" xmlns="http://www.w3.org/2000/svg">
<path d="M100.278 9.10181C102.054 9.10181 103.493 10.5404 103.493 12.3167H107.265C107.265 8.47057 104.138 5.34375 100.292 5.34375C98.3693 5.34375 96.6223 6.12179 95.3599 7.38426L98.0169 10.0413C98.5895 9.46881 99.3968 9.10181 100.278 9.10181Z" fill="#4DA3FF"/>
<path d="M93.3052 12.3163C93.3052 16.1624 96.432 19.2892 100.278 19.2892V15.5165C98.5019 15.5165 97.0632 14.0779 97.0632 12.3016C97.0632 11.4208 97.4156 10.6134 98.0028 10.0262L95.3457 7.36914C94.0832 8.64629 93.3052 10.3932 93.3052 12.3163Z" fill="#4DA3FF"/>
<path d="M112.595 12.3164C112.595 7.73629 110.085 3.74335 106.356 1.61476C104.565 0.601845 102.48 0.0146484 100.278 0.0146484V3.78739C101.438 3.78739 102.539 4.02227 103.552 4.4333C105.46 5.22602 107.031 6.69401 107.941 8.54368C108.514 9.68872 108.837 10.9659 108.837 12.3311C108.837 14.3276 108.147 16.1772 106.987 17.6306L107.809 19.8472L105.592 19.0251C104.139 20.1849 102.289 20.8748 100.293 20.8748C98.9425 20.8748 97.6506 20.5519 96.5056 19.9793C94.6559 19.0692 93.2026 17.4984 92.3952 15.59C91.9842 14.6065 91.7493 13.5202 91.7493 12.3751V12.3164H87.9766V12.3898C87.9912 14.5771 88.5784 16.6176 89.5767 18.3939C91.6906 22.1079 95.6982 24.6329 100.278 24.6329C102.833 24.6329 105.211 23.8548 107.178 22.519L112.433 24.4714L110.481 19.216C111.817 17.2489 112.595 14.8707 112.595 12.3164Z" fill="white"/>
<path d="M12.2577 13.2706L4.11038 0H0V23.8842H3.93422V7.2372L10.3053 17.6159H14.1808L20.5813 7.20784V23.8842H24.5155V0H20.4051L12.2577 13.2706Z" fill="white"/>
<path d="M67.3363 17.3663L54.051 0H50.0728V23.8842H54.007V6.40045L67.3804 23.8842H71.2706V0H67.3363V17.3663Z" fill="white"/>
<path d="M73.2964 0V3.77274H81.8401V23.8842H85.7743V3.77274H94.2887V0H73.2964Z" fill="white"/>
<path d="M43.4371 0H48.0466V13.5055C48.0466 19.5537 43.5546 23.8695 37.2862 23.8695C31.0179 23.8695 26.5405 19.5683 26.5405 13.5202V0.0146803H31.15V13.6817C31.15 17.1021 33.7043 19.5096 37.3009 19.5096C40.8975 19.5096 43.4518 17.0874 43.4518 13.6817L43.4371 0Z" fill="white"/>
</svg>
