<?xml version="1.0" encoding="UTF-8"?>
<svg id="Layer_2" data-name="Layer 2" xmlns="http://www.w3.org/2000/svg" viewBox="0 0 404.4 132.17">
  <defs>
    <style>
      .cls-1 {
        fill: #0acd24;
      }

      .cls-2 {
        fill: #00ff26;
      }

      .cls-3 {
        fill: #0b4dbb;
      }
    </style>
  </defs>
  <g id="Layer_1-2" data-name="Layer 1">
    <g>
      <path class="cls-3" d="M394.83,13.25l-34.82-5.41s24,11.45,25.8,39.61l9.02-34.19Z"/>
      <path class="cls-1" d="M399.62,9.33l-34.82-5.41s24,11.45,25.8,39.61l9.02-34.19Z"/>
      <path class="cls-2" d="M404.4,5.41L369.58,0s24,11.45,25.8,39.61l9.02-34.19Z"/>
      <g>
        <path class="cls-3" d="M348.66,46.43h-78.4c-2.99,0-5.41-2.42-5.41-5.41s2.42-5.41,5.41-5.41h90.06c3.99,0,7.22-3.23,7.22-7.22s-3.23-7.22-7.22-7.22h-91.03c-10.42,0-18.88,8.45-18.88,18.88v1.94c0,10.42,8.45,18.88,18.88,18.88h78.41c2.99,0,5.41,2.42,5.41,5.41s-2.42,5.41-5.41,5.41h-90.06c-3.99,0-7.22,3.23-7.22,7.22s3.23,7.22,7.22,7.22h91.03c10.42,0,18.88-8.45,18.88-18.88v-1.94c0-10.42-8.45-18.88-18.88-18.88Z"/>
        <path class="cls-3" d="M224.33,21.17h-87.39c-4.04,0-7.48,3.31-7.4,7.35,.07,3.92,3.28,7.08,7.22,7.08h86.45c2.98,0,5.58,2.44,5.57,5.42,0,1.49-.61,2.84-1.58,3.82-.98,.98-2.33,1.59-3.83,1.59h-93.83v34.28c0,2.99,2.42,5.41,5.41,5.41h89.38c10.43,0,18.88-8.45,18.88-18.88v-.94c0-4.54-1.5-8.96-4.27-12.56l-.44-.57,.44-.57c2.77-3.6,4.27-8.01,4.27-12.56h0c0-10.43-8.45-18.88-18.88-18.88Zm2.86,48.92c-.98,.98-2.33,1.59-3.83,1.59h-79.4v-10.82h79.4c2.99,0,5.41,2.42,5.41,5.41,0,1.49-.61,2.85-1.58,3.83Z"/>
        <path class="cls-3" d="M88.78,21.17H29.57C13.24,21.17,0,34.41,0,50.74v5.8c0,16.33,13.24,29.57,29.57,29.57h16.99c3.99,0,7.22-3.23,7.22-7.22s-3.23-7.22-7.22-7.22h-14.84c-9.55,0-17.29-7.74-17.29-17.29v-1.49c0-9.55,7.74-17.29,17.29-17.29h54.9c9.55,0,17.29,7.74,17.29,17.29v1.49c0,9.55-7.74,17.29-17.29,17.29h-7.06c-3.99,0-7.22,3.23-7.22,7.22s3.23,7.22,7.22,7.22h9.21c16.33,0,29.57-13.24,29.57-29.57v-5.8c0-16.33-13.24-29.57-29.57-29.57Z"/>
        <path class="cls-3" d="M62.27,51.14c-4.85,0-8.78,3.93-8.78,8.78s3.93,8.78,8.78,8.78,8.78-3.93,8.78-8.78-3.93-8.78-8.78-8.78Z"/>
      </g>
      <g>
        <path class="cls-1" d="M11.36,93.87v29.57h-3.53v-29.57h3.53Z"/>
        <path class="cls-1" d="M31.4,123.92c-2.12,0-3.94-.48-5.48-1.43-1.53-.95-2.71-2.28-3.53-3.97-.82-1.69-1.23-3.66-1.23-5.89s.41-4.21,1.22-5.93c.81-1.72,1.96-3.06,3.45-4.03,1.49-.97,3.22-1.45,5.19-1.45,1.24,0,2.44,.21,3.59,.63,1.15,.42,2.18,1.07,3.1,1.96,.91,.89,1.63,2.04,2.16,3.44,.53,1.4,.79,3.08,.79,5.02v1.37H23.44v-2.98h15.3l-1.61,1.07c0-1.44-.23-2.72-.7-3.83-.47-1.11-1.16-1.98-2.06-2.61-.91-.63-2.02-.94-3.34-.94s-2.44,.32-3.38,.95c-.95,.64-1.67,1.48-2.17,2.53-.5,1.05-.75,2.21-.75,3.46v1.87c0,1.6,.27,2.97,.82,4.11,.55,1.14,1.33,2,2.34,2.6,1.01,.6,2.19,.89,3.54,.89,.9,0,1.71-.13,2.43-.4,.72-.26,1.34-.65,1.86-1.17,.52-.52,.91-1.15,1.17-1.91l3.43,.75c-.33,1.15-.91,2.17-1.73,3.06-.82,.89-1.84,1.58-3.07,2.07-1.22,.5-2.6,.74-4.12,.74Z"/>
        <path class="cls-1" d="M59.22,101.53v3.02h-11.45v-3.02h11.45Zm-8.04-5.38h3.53v21.69c0,.94,.19,1.62,.59,2.05,.39,.43,1.05,.64,1.97,.64,.24,0,.53-.02,.88-.06,.35-.04,.67-.08,.96-.12l.58,2.98c-.37,.11-.78,.19-1.24,.24-.46,.05-.9,.08-1.34,.08-1.89,0-3.35-.48-4.39-1.45-1.03-.97-1.55-2.33-1.55-4.09v-21.97Z"/>
        <path class="cls-1" d="M68.5,104.79l1.75-10.91h3.99l-3.06,10.91h-2.68Z"/>
        <path class="cls-1" d="M87.88,123.92c-1.51,0-2.86-.23-4.05-.68-1.19-.46-2.17-1.13-2.94-2.03-.77-.9-1.26-2.01-1.49-3.33l3.37-.64c.28,1.23,.85,2.14,1.72,2.73,.87,.59,1.98,.88,3.34,.88,1.52,0,2.74-.33,3.64-.98,.91-.65,1.36-1.44,1.36-2.35,0-.77-.27-1.4-.82-1.91-.55-.5-1.35-.87-2.41-1.11l-3.63-.87c-2-.46-3.49-1.19-4.47-2.19-.98-1-1.47-2.27-1.47-3.82,0-1.26,.35-2.36,1.04-3.32,.69-.96,1.65-1.71,2.87-2.25,1.22-.54,2.61-.81,4.17-.81s2.8,.24,3.89,.71c1.08,.48,1.96,1.14,2.63,1.98,.67,.85,1.13,1.83,1.4,2.94l-3.23,.65c-.24-.86-.72-1.62-1.46-2.29-.73-.67-1.8-1-3.2-1-1.32,0-2.41,.3-3.26,.91-.85,.61-1.28,1.38-1.28,2.3,0,.82,.3,1.48,.89,1.96,.6,.49,1.51,.88,2.74,1.17l3.35,.79c2.01,.48,3.5,1.21,4.46,2.19,.96,.99,1.44,2.24,1.44,3.76,0,1.3-.36,2.44-1.09,3.43-.73,.99-1.74,1.77-3.03,2.33-1.29,.56-2.78,.84-4.47,.84Z"/>
        <path class="cls-1" d="M131.21,132.17c-1.61,0-3.03-.22-4.25-.64-1.22-.43-2.22-1.02-3.02-1.77-.79-.75-1.39-1.59-1.79-2.53l3.02-1.45c.29,.5,.67,1.01,1.15,1.52,.48,.51,1.11,.93,1.9,1.27,.79,.34,1.78,.51,2.99,.51,1.79,0,3.24-.44,4.37-1.31,1.12-.87,1.69-2.22,1.69-4.03v-4.17h-.26c-.32,.5-.73,1.04-1.23,1.62-.5,.58-1.18,1.06-2.02,1.46-.85,.4-1.92,.6-3.23,.6-1.79,0-3.38-.43-4.78-1.28-1.4-.85-2.51-2.09-3.31-3.71-.81-1.62-1.21-3.57-1.21-5.84s.4-4.23,1.19-5.9c.79-1.67,1.9-2.97,3.3-3.9,1.41-.93,3.03-1.39,4.87-1.39,1.31,0,2.39,.21,3.23,.64,.85,.42,1.53,.93,2.04,1.53,.52,.6,.93,1.14,1.23,1.65h.26v-3.49h3.43v22.36c0,1.93-.43,3.51-1.28,4.73-.85,1.22-2,2.12-3.45,2.69-1.45,.57-3.06,.85-4.83,.85Zm-.12-12.07c1.34,0,2.47-.31,3.4-.93,.93-.62,1.64-1.51,2.12-2.68,.48-1.16,.72-2.55,.72-4.15s-.24-2.96-.71-4.16c-.48-1.2-1.18-2.13-2.11-2.81-.93-.67-2.07-1.01-3.42-1.01s-2.51,.35-3.45,1.04c-.94,.69-1.65,1.64-2.13,2.84-.48,1.2-.72,2.56-.72,4.1s.24,2.92,.73,4.09c.49,1.16,1.2,2.07,2.14,2.71,.94,.64,2.08,.96,3.43,.96Z"/>
        <path class="cls-1" d="M160.82,123.92c-2.12,0-3.94-.48-5.48-1.43-1.53-.95-2.71-2.28-3.53-3.97-.82-1.69-1.23-3.66-1.23-5.89s.41-4.21,1.22-5.93c.81-1.72,1.96-3.06,3.45-4.03,1.49-.97,3.22-1.45,5.19-1.45,1.24,0,2.44,.21,3.59,.63,1.15,.42,2.18,1.07,3.1,1.96,.91,.89,1.63,2.04,2.16,3.44,.53,1.4,.79,3.08,.79,5.02v1.37h-17.22v-2.98h15.3l-1.61,1.07c0-1.44-.23-2.72-.7-3.83-.47-1.11-1.16-1.98-2.06-2.61-.91-.63-2.02-.94-3.34-.94s-2.44,.32-3.38,.95c-.95,.64-1.67,1.48-2.17,2.53-.5,1.05-.75,2.21-.75,3.46v1.87c0,1.6,.27,2.97,.82,4.11,.55,1.14,1.33,2,2.34,2.6,1.01,.6,2.19,.89,3.54,.89,.9,0,1.71-.13,2.43-.4,.72-.26,1.34-.65,1.86-1.17,.52-.52,.91-1.15,1.17-1.91l3.43,.75c-.33,1.15-.91,2.17-1.73,3.06-.82,.89-1.84,1.58-3.07,2.07-1.22,.5-2.6,.74-4.12,.74Z"/>
        <path class="cls-1" d="M188.63,101.53v3.02h-11.45v-3.02h11.45Zm-8.04-5.38h3.53v21.69c0,.94,.19,1.62,.58,2.05,.39,.43,1.05,.64,1.98,.64,.24,0,.53-.02,.88-.06,.35-.04,.67-.08,.96-.12l.58,2.98c-.37,.11-.78,.19-1.24,.24-.46,.05-.9,.08-1.34,.08-1.89,0-3.35-.48-4.39-1.45-1.03-.97-1.55-2.33-1.55-4.09v-21.97Z"/>
        <path class="cls-1" d="M224.08,123.9c-1.28,0-2.35-.22-3.2-.64-.85-.43-1.54-.94-2.05-1.54-.52-.6-.93-1.14-1.23-1.65h-.32v3.37h-3.41v-29.57h3.53v11.11h.22c.29-.49,.69-1.03,1.19-1.61,.5-.58,1.17-1.09,2.01-1.52,.84-.43,1.92-.64,3.24-.64,1.85,0,3.48,.46,4.87,1.39,1.4,.93,2.49,2.24,3.28,3.93,.79,1.69,1.19,3.69,1.19,5.99s-.39,4.32-1.18,6.02c-.79,1.7-1.88,3.02-3.27,3.95-1.4,.93-3.02,1.4-4.87,1.4Zm-.54-3.16c1.35,0,2.49-.36,3.42-1.07,.93-.71,1.64-1.69,2.12-2.94,.48-1.24,.72-2.65,.72-4.23s-.24-2.97-.71-4.2c-.48-1.22-1.18-2.19-2.11-2.89-.93-.7-2.08-1.05-3.44-1.05s-2.49,.34-3.41,1.02c-.93,.68-1.63,1.63-2.11,2.85-.48,1.22-.72,2.64-.72,4.27s.24,3.06,.72,4.3c.48,1.24,1.19,2.2,2.13,2.9s2.07,1.04,3.39,1.04Z"/>
        <path class="cls-1" d="M252.38,123.92c-2.12,0-3.94-.48-5.48-1.43-1.53-.95-2.71-2.28-3.53-3.97-.82-1.69-1.23-3.66-1.23-5.89s.41-4.21,1.22-5.93c.81-1.72,1.96-3.06,3.45-4.03,1.49-.97,3.22-1.45,5.19-1.45,1.24,0,2.44,.21,3.59,.63,1.15,.42,2.18,1.07,3.1,1.96,.91,.89,1.63,2.04,2.16,3.44,.53,1.4,.79,3.08,.79,5.02v1.37h-17.22v-2.98h15.3l-1.61,1.07c0-1.44-.24-2.72-.7-3.83-.47-1.11-1.16-1.98-2.06-2.61-.91-.63-2.02-.94-3.34-.94s-2.44,.32-3.38,.95c-.95,.64-1.67,1.48-2.17,2.53-.5,1.05-.75,2.21-.75,3.46v1.87c0,1.6,.27,2.97,.82,4.11,.55,1.14,1.33,2,2.34,2.6,1.01,.6,2.19,.89,3.54,.89,.9,0,1.71-.13,2.43-.4,.72-.26,1.34-.65,1.86-1.17,.52-.52,.91-1.15,1.17-1.91l3.43,.75c-.33,1.15-.91,2.17-1.73,3.06-.82,.89-1.84,1.58-3.07,2.07-1.22,.5-2.6,.74-4.12,.74Z"/>
        <path class="cls-1" d="M280.19,101.53v3.02h-11.45v-3.02h11.45Zm-8.04-5.38h3.53v21.69c0,.94,.19,1.62,.59,2.05,.39,.43,1.05,.64,1.97,.64,.24,0,.53-.02,.88-.06,.35-.04,.67-.08,.96-.12l.58,2.98c-.37,.11-.78,.19-1.24,.24-.46,.05-.9,.08-1.34,.08-1.89,0-3.35-.48-4.39-1.45-1.03-.97-1.55-2.33-1.55-4.09v-21.97Z"/>
        <path class="cls-1" d="M297.91,101.53v3.02h-11.45v-3.02h11.45Zm-8.04-5.38h3.53v21.69c0,.94,.19,1.62,.59,2.05,.39,.43,1.05,.64,1.97,.64,.24,0,.53-.02,.88-.06,.35-.04,.67-.08,.96-.12l.58,2.98c-.37,.11-.78,.19-1.24,.24-.46,.05-.9,.08-1.34,.08-1.89,0-3.35-.48-4.39-1.45-1.03-.97-1.55-2.33-1.55-4.09v-21.97Z"/>
        <path class="cls-1" d="M315.88,123.92c-2.12,0-3.94-.48-5.48-1.43-1.53-.95-2.71-2.28-3.53-3.97-.82-1.69-1.23-3.66-1.23-5.89s.41-4.21,1.22-5.93c.81-1.72,1.96-3.06,3.45-4.03,1.49-.97,3.22-1.45,5.19-1.45,1.24,0,2.44,.21,3.59,.63,1.15,.42,2.18,1.07,3.1,1.96,.91,.89,1.63,2.04,2.16,3.44,.53,1.4,.79,3.08,.79,5.02v1.37h-17.22v-2.98h15.3l-1.61,1.07c0-1.44-.24-2.72-.7-3.83-.47-1.11-1.16-1.98-2.06-2.61-.91-.63-2.02-.94-3.34-.94s-2.44,.32-3.38,.95c-.95,.64-1.67,1.48-2.17,2.53-.5,1.05-.75,2.21-.75,3.46v1.87c0,1.6,.27,2.97,.82,4.11,.55,1.14,1.33,2,2.34,2.6,1.01,.6,2.19,.89,3.54,.89,.9,0,1.71-.13,2.43-.4,.72-.26,1.34-.65,1.86-1.17,.52-.52,.91-1.15,1.17-1.91l3.43,.75c-.33,1.15-.91,2.17-1.73,3.06-.82,.89-1.84,1.58-3.07,2.07-1.22,.5-2.6,.74-4.12,.74Z"/>
        <path class="cls-1" d="M334.87,123.44v-21.91h3.39v3.37h.2c.41-1.11,1.12-2,2.12-2.68,1.01-.67,2.16-1.01,3.47-1.01,.28,0,.59,0,.93,.02,.34,.01,.61,.03,.79,.04v3.55c-.11-.03-.37-.07-.78-.12-.42-.05-.86-.08-1.34-.08-.99,0-1.89,.21-2.69,.64-.8,.42-1.43,1.02-1.89,1.79-.46,.77-.68,1.67-.68,2.72v13.67h-3.53Z"/>
        <path class="cls-1" d="M357.09,123.72c-.73,0-1.35-.26-1.86-.77-.51-.52-.76-1.13-.76-1.85s.25-1.35,.76-1.87c.51-.52,1.13-.77,1.86-.77s1.36,.26,1.87,.77c.5,.52,.75,1.14,.75,1.87s-.25,1.33-.75,1.85c-.5,.52-1.12,.77-1.87,.77Zm-1.75-9.43l-.24-20.42h3.97l-.26,20.42h-3.47Z"/>
      </g>
    </g>
  </g>
</svg>